<?xml version="1.0" encoding="UTF-8"?>
<!DOCTYPE svg PUBLIC "-//W3C//DTD SVG 1.1//EN" "http://www.w3.org/Graphics/SVG/1.1/DTD/svg11.dtd">
<!-- Creator: CorelDRAW -->
<svg xmlns="http://www.w3.org/2000/svg" xml:space="preserve" width="250px" height="250px" style="shape-rendering:geometricPrecision; text-rendering:geometricPrecision; image-rendering:optimizeQuality; fill-rule:evenodd; clip-rule:evenodd"
viewBox="0 0 250 250"
 xmlns:xlink="http://www.w3.org/1999/xlink">
 <defs>
  <style type="text/css">
   <![CDATA[
    .fil0 {fill:#B8192B}
    .fil1 {fill:#FEF200}
   ]]>
  </style>
 </defs>
 <g id="Capa_x0020_1">
  <metadata id="CorelCorpID_0Corel-Layer"/>
  <g id="_48658304">
   <rect id="_46157160" class="fil0" x="-0.000291715" y="-0.000295157" width="250.001" height="250.001"/>
   <path id="_48314232" class="fil1" d="M127.311 65.8998c11.3888,-20.1822 25.3767,-26.8371 50.8974,-26.8371 28.1753,0 57.2518,27.6089 56.6742,59.4616 -0.865751,47.735 -45.1212,95.6312 -107.716,131.51 -62.4504,-36.3131 -107.297,-83.9135 -107.716,-131.654 -0.289371,-33.0101 28.4983,-59.3175 56.6736,-59.3175 25.5207,0 40.3035,6.43821 51.1868,26.8371z"/>
   <polygon id="_48921984" class="fil0" points="55.251,80.7292 118.357,80.7292 118.357,94.329 77.6347,94.329 77.6347,134.114 118.357,134.114 118.357,147.714 55.251,147.714 "/>
   <polygon id="_48488176" class="fil0" points="131.695,80.7292 158.863,80.7292 158.863,107.494 171.624,107.494 171.624,80.7292 198.792,80.7292 198.792,147.714 171.624,147.714 171.624,120.949 158.863,120.949 158.863,147.714 131.695,147.714 "/>
  </g>
 </g>
</svg>
